HIERARCHY
ROOT Hips
{
	OFFSET 0.000001 -0.000078 -0.000001
	CHANNELS 6 Xposition Yposition Zposition Zrotation Xrotation Yrotation
	JOINT RHip
	{
		OFFSET 0.050097 0.050444 -0.047671
		CHANNELS 3 Zrotation Xrotation Yrotation
		JOINT RKnee
		{
			OFFSET -0.017253 0.187945 0.175403
			CHANNELS 3 Zrotation Xrotation Yrotation
			JOINT RFoot
			{
				OFFSET -0.230387 0.222280 0.059118
				CHANNELS 3 Zrotation Xrotation Yrotation
				End Site
				{
					OFFSET 0 0 0
				}
			}
		}
	}
	JOINT LHip
	{
		OFFSET -0.050105 -0.050313 0.047687
		CHANNELS 3 Zrotation Xrotation Yrotation
		JOINT LKnee
		{
			OFFSET -0.129789 0.151561 0.243446
			CHANNELS 3 Zrotation Xrotation Yrotation
			JOINT LFoot
			{
				OFFSET -0.258887 0.174976 0.107370
				CHANNELS 3 Zrotation Xrotation Yrotation
				End Site
				{
					OFFSET 0 0 0
				}
			}
		}
	}
	JOINT Spine
	{
		OFFSET 0.183735 0.026649 -0.091683
		CHANNELS 3 Zrotation Xrotation Yrotation
		JOINT Thorax
		{
			OFFSET 0.210026 0.044161 -0.091663
			CHANNELS 3 Zrotation Xrotation Yrotation
			JOINT Neck
			{
				OFFSET 0.051641 0.036557 -0.009011
				CHANNELS 3 Zrotation Xrotation Yrotation
				JOINT Head
				{
					OFFSET 0.044949 -0.017222 -0.062039
					CHANNELS 3 Zrotation Xrotation Yrotation
					End Site
					{
						OFFSET 0 0 0
					}
				}
			}
			JOINT LShoulder
			{
				OFFSET -0.091086 -0.089711 0.048138
				CHANNELS 3 Zrotation Xrotation Yrotation
				JOINT LElbow
				{
					OFFSET -0.122210 -0.138091 0.067119
					CHANNELS 3 Zrotation Xrotation Yrotation
					JOINT LWrist
					{
						OFFSET 0.062386 -0.015589 0.000972
						CHANNELS 3 Zrotation Xrotation Yrotation
						End Site
						{
							OFFSET 0 0 0
						}
					}
				}
			}
			JOINT RShoulder
			{
				OFFSET 0.028054 0.105408 -0.029813
				CHANNELS 3 Zrotation Xrotation Yrotation
				JOINT RElbow
				{
					OFFSET 0.055869 0.174563 0.005723
					CHANNELS 3 Zrotation Xrotation Yrotation
					JOINT RWrist
					{
						OFFSET 0.070520 0.136213 0.012735
						CHANNELS 3 Zrotation Xrotation Yrotation
						End Site
						{
							OFFSET 0 0 0
						}
					}
				}
			}
		}
	}
}
MOTION
Frames: 16
Frame Time: 0.020000
-0.000008 -0.000100 -0.000003 -38.149488 -11.807645 -37.245919 -38.149488 -11.807645 -37.245919 96.494442 83.482054 58.316698 14.942442 31.783346 41.354931 -38.219289 -12.029664 -37.225544 45.375281 48.859061 93.168870 -5.488498 34.419748 56.454233 22.699482 -5.088543 47.772212 27.916988 -9.722734 48.301464 -32.834685 -28.474999 69.345468 37.737387 31.270984 48.450263 -51.253429 -27.693830 32.541853 -94.520464 -32.123964 -44.932053 101.256915 -17.232520 20.850164 -93.204441 1.255391 -46.978634 -7.205649 -36.083242 14.592307 36.250957 -10.748213 -1.234727
-0.000009 -0.000110 -0.000004 -37.066170 -7.333709 -41.813314 -37.066170 -7.333709 -41.813314 69.681846 81.502759 25.032606 19.446898 33.590229 46.517803 -37.185160 -7.651379 -41.801607 37.934773 48.252826 93.502897 -0.936351 34.543639 58.771442 21.446717 -6.003012 50.533741 27.610011 -10.964163 51.166914 -26.824872 -34.788387 76.081140 22.320814 24.424635 38.582008 -36.918478 -30.638856 40.656775 -122.555929 -37.348082 -4.246689 105.163471 -11.876813 12.677537 -85.762258 26.901088 -67.516717 6.240683 -28.713573 7.382209 35.018512 -7.454846 -1.599122
-0.000007 -0.000111 -0.000003 -32.370739 -0.193720 -41.933407 -32.370739 -0.193720 -41.933407 61.364723 80.249275 16.958134 19.703213 35.109149 49.164482 -32.474741 -0.457638 -41.973466 39.638031 48.368199 94.581048 -3.970279 34.771227 57.738361 19.438469 -6.973303 53.745643 28.720182 -11.817166 52.933569 -23.955164 -38.189434 79.353892 14.186223 19.472127 40.222989 -15.465690 -26.412338 29.998966 -140.163642 -32.096013 20.980027 96.212594 -6.156650 6.793688 -80.289024 29.685670 -64.111134 17.812437 -25.330731 3.419877 32.933402 -4.308529 -1.910072
0.000000 -0.000103 -0.000002 -28.929687 3.271823 -39.864254 -28.929687 3.271823 -39.864254 128.045220 83.064227 94.565087 5.490286 39.836172 47.999300 -29.016385 3.062267 -39.921119 51.004487 49.812522 87.264052 -2.205629 32.624787 54.709770 20.963189 -7.891759 56.679820 32.960086 -13.056674 54.796513 -27.435362 -39.822596 87.307885 33.812414 26.845404 62.914445 7.129949 -15.726207 18.946124 -119.037058 -42.871041 -30.408953 89.350253 -6.362767 8.336067 -42.199851 28.531686 -31.672007 -4.987569 -25.918612 9.790704 36.924529 -2.776533 -2.608989
-0.000001 -0.000097 -0.000004 -26.019542 9.947728 -41.710718 -26.019542 9.947728 -41.710718 141.077033 81.929685 112.279287 -0.060772 39.043650 44.139066 -26.084523 9.792434 -41.791651 67.978366 50.684393 93.292201 -9.542795 33.144700 52.762582 24.093563 -8.845711 59.129931 35.120315 -13.428946 55.106543 -24.124512 -41.353063 85.676266 48.292738 32.240130 62.227230 6.581342 -8.545536 11.486436 -97.296009 -32.811700 -32.160104 80.251400 -7.872057 13.471735 -34.524123 26.037719 -25.379247 -20.500694 -23.681949 13.335960 37.992983 -4.840672 -2.408912
-0.000000 -0.000090 -0.000003 -25.384908 11.340140 -41.975249 -25.384908 11.340140 -41.975249 117.651266 83.518882 90.384089 -0.944962 36.243249 40.361584 -25.400837 11.254124 -42.042371 70.199336 51.593907 89.547717 -16.723495 33.831307 51.340642 25.976501 -9.581749 60.856711 36.401162 -12.806812 53.676377 -25.795297 -42.926719 90.918006 55.191370 38.343708 52.297731 -5.171051 -4.518780 2.162657 -66.449149 -15.249568 -35.055458 76.032290 -8.207087 15.719302 -39.190208 17.666795 -23.492248 -28.019129 -25.529162 16.828837 31.479703 -5.565487 -1.482594
0.000002 -0.000091 -0.000005 -23.092485 11.223378 -38.491650 -23.092485 11.223378 -38.491650 65.051900 81.536665 27.788912 2.418970 26.009633 29.183637 -23.106938 11.147391 -38.553116 64.188450 50.145486 94.709705 -32.725929 36.099763 49.313153 26.040459 -10.046476 62.151712 36.405920 -13.476804 54.945174 -22.192784 -45.057218 89.837859 48.697189 35.100416 53.229604 -8.213225 -0.171507 -4.562297 -45.312257 -8.217314 -20.799820 89.919936 -20.556915 31.368806 -42.218940 14.930688 -23.537183 -32.432459 -27.190149 19.508448 39.738561 -13.238064 -1.496745
-0.000002 -0.000089 -0.000006 -23.210064 7.143968 -34.913947 -23.210064 7.143968 -34.913947 52.399420 79.132899 14.403306 -0.894889 24.232284 26.382969 -23.213118 7.076610 -34.958487 61.044746 50.573519 90.049620 -32.155903 37.712483 51.254041 26.922466 -10.859426 64.153553 36.751180 -13.892575 55.661208 -19.913532 -45.786993 88.153238 43.854821 31.499096 58.762479 -9.071349 3.899093 -9.731745 -38.430354 -1.615287 -25.035490 92.425069 -28.213975 41.311873 -46.868195 10.149266 -22.954829 -31.723790 -27.994130 19.780835 43.011851 -15.870732 -1.845256
0.000001 -0.000091 -0.000007 -23.950291 4.359728 -33.235722 -23.950291 4.359728 -33.235722 40.720311 74.429831 2.321970 -1.534237 22.471453 24.287697 -23.944888 4.294261 -33.266354 59.843307 50.814947 87.364322 -27.087556 39.161863 54.678569 28.741909 -11.345801 64.871291 37.931932 -14.057778 55.723958 -14.431844 -47.644367 84.619009 38.961484 28.887548 61.952464 -13.605504 2.637187 -11.549077 -56.755468 -13.197543 -23.694977 104.695958 -26.032676 30.461970 -50.564349 5.274923 -21.393022 -24.502471 -29.148962 17.769673 40.412924 -7.526855 -2.352146
0.000010 -0.000093 -0.000006 -25.256992 1.013314 -31.616841 -25.256992 1.013314 -31.616841 31.540589 67.080475 -4.995579 -5.562742 27.800757 29.303891 -25.247343 0.947813 -31.638074 57.131622 51.495134 79.093678 -24.193807 41.024772 58.165375 31.769546 -11.777105 64.994782 39.836619 -14.367983 55.890987 -6.671503 -48.782360 77.998320 35.315819 27.513321 62.182174 -21.200561 -0.328946 -13.679821 -66.879510 -18.215739 -24.473499 110.847384 -26.542995 27.857462 -56.781701 -1.413289 -19.030695 -23.673448 -27.144122 16.298896 43.697088 -7.664517 -2.800053
0.000019 -0.000093 -0.000005 -23.587391 1.051085 -29.149031 -23.587391 1.051085 -29.149031 18.386755 58.719032 -2.081898 -10.691559 35.026490 35.308742 -23.578103 0.990997 -29.167696 53.199437 51.502496 72.649006 -17.228124 41.229559 61.634850 33.636939 -12.283981 65.611968 43.398952 -14.624340 55.618558 -5.938340 -47.989575 76.066028 37.023476 28.853095 58.526307 -23.462339 -2.641295 -12.231901 -76.654577 -22.768173 -26.063921 117.280681 -26.786976 25.076489 -59.224752 -4.421798 -17.444498 -17.894633 -26.101770 13.801406 37.023447 -15.434116 -0.630034
0.000027 -0.000093 -0.000003 -24.842523 0.935009 -30.898372 -24.842523 0.935009 -30.898372 -0.561033 49.920909 9.094794 -15.987512 42.415961 40.548385 -24.827419 0.877951 -30.918165 52.425954 51.532065 70.751632 -9.277864 40.757432 65.085155 34.604900 -12.856109 66.609379 45.997463 -14.484800 54.913615 -9.052230 -46.963064 77.647663 38.266987 29.766743 56.528445 -26.689842 -1.923849 -16.125004 -73.971851 -21.461756 -25.960348 119.391922 -28.022394 25.355398 -62.035572 -3.020938 -20.052988 -11.889361 -26.144679 11.942592 28.077999 -23.666077 3.260285
0.000031 -0.000099 -0.000003 -25.821251 -1.153074 -29.989322 -25.821251 -1.153074 -29.989322 -15.711899 47.056153 20.321177 -23.095526 45.237840 40.030944 -25.804453 -1.207712 -30.007991 52.748115 51.862507 68.089045 -2.913883 38.902244 65.609521 35.214366 -13.538190 67.931944 48.433566 -15.089517 55.405857 -12.114041 -46.408868 80.022117 43.243410 31.149362 59.190726 -29.730402 -3.135935 -17.061161 -80.287798 -24.215029 -29.386130 119.316736 -20.381770 17.879382 -63.396253 -3.108904 -20.629850 -12.135807 -27.781249 12.760772 25.231424 -23.695892 4.108693
0.000034 -0.000106 -0.000003 -25.377172 -0.695243 -29.845252 -25.377172 -0.695243 -29.845252 -20.766648 48.002308 24.453463 -23.159959 50.529273 44.707612 -25.363577 -0.752661 -29.864581 54.798515 52.085621 70.211658 -0.679835 36.675608 62.848010 34.780512 -14.130520 69.423695 50.363444 -16.079612 56.499495 -14.917670 -45.982903 82.461115 41.320137 30.194383 60.054804 -32.295808 -4.019415 -18.119948 -85.400044 -26.587954 -34.660714 113.023375 -17.479857 16.940943 -65.552089 -3.172623 -21.644403 -10.467201 -25.242465 11.116689 22.543920 -25.292132 5.378855
0.000037 -0.000110 -0.000002 -24.417609 0.137739 -29.353592 -24.417609 0.137739 -29.353592 -22.667512 51.384966 26.636889 -18.639285 53.160966 49.686314 -24.407631 0.079156 -29.374454 54.030665 51.598060 73.302940 0.305589 34.500820 59.310115 34.884167 -14.743370 70.757577 51.107018 -17.217884 57.984659 -18.788120 -45.264726 85.851152 44.720497 31.036959 61.814802 -33.895620 -5.224353 -17.629331 -84.909019 -25.814216 -44.390145 107.798667 -17.334876 18.527893 -66.743595 -3.557837 -21.861375 -11.518457 -25.872046 11.707479 19.736131 -25.421506 6.312766
0.000036 -0.000108 -0.000002 -24.068399 1.754822 -30.643526 -24.068399 1.754822 -30.643526 -19.728662 55.773405 25.647255 -14.238666 55.357432 54.638463 -24.060741 1.692603 -30.667149 51.911253 50.793899 77.571948 -1.775536 33.655616 56.753977 34.697597 -15.246116 71.967848 51.355522 -17.978843 59.016541 -22.940588 -45.187235 91.064135 46.834455 30.922967 65.043172 -38.546874 -6.913621 -19.486112 -83.404561 -23.664523 -58.205674 105.737969 -14.785719 16.126014 -68.156743 -1.458127 -24.780770 -10.625977 -23.360350 10.344510 20.706866 -25.997425 6.180300
